<svg width="31" height="32" viewBox="0 0 31 32" fill="none" xmlns="http://www.w3.org/2000/svg">
<g id="Logomark">
<path id="Exclude" d="M15.5379 0.416504C7.00916 0.416504 0.0953369 7.3934 0.0953369 15.9998C0.0953369 24.6063 7.00916 31.5832 15.5379 31.5832C23.1896 31.5832 29.5416 25.9672 30.7669 18.5971H30.656C29.5132 23.0779 25.4824 26.3887 20.6854 26.3887C14.9996 26.3887 10.3903 21.7375 10.3903 15.9998C10.3903 10.2622 14.9996 5.61095 20.6854 5.61095C25.4824 5.61095 29.5132 8.92181 30.656 13.4026H30.7669C29.5416 6.03244 23.1896 0.416504 15.5379 0.416504Z" fill="#A4BCFD"/>
<path id="Exclude_2" d="M0.0953369 15.9998C0.0953369 7.3934 7.00919 0.416504 15.5379 0.416504C23.1896 0.416504 29.5415 6.03244 30.7669 13.4026H20.361C19.2182 8.92182 15.1874 5.61095 10.3903 5.61095C4.70457 5.61095 0.0953369 10.2622 0.0953369 15.9998Z" fill="#3538CD"/>
<path id="Exclude_3" d="M0.0953369 15.9997C0.0953369 24.6061 7.00919 31.583 15.5379 31.583C23.1896 31.583 29.5415 25.9671 30.7669 18.5969H20.361C19.2182 23.0777 15.1874 26.3886 10.3903 26.3886C4.70457 26.3886 0.0953369 21.7373 0.0953369 15.9997Z" fill="#3538CD"/>
</g>
</svg>
