<svg width="32" height="32" viewBox="0 0 32 32" fill="none" xmlns="http://www.w3.org/2000/svg">
<g id="Logomark">
<path id="Intersect" d="M11.5535 22.6784C17.6454 22.6784 22.5839 17.6949 22.5839 11.5475C22.5839 10.8508 22.5204 10.169 22.3991 9.50776C21.7438 9.3853 21.0682 9.32129 20.3778 9.32129C14.2859 9.32129 9.34741 14.3048 9.34741 20.4522C9.34741 21.149 9.41084 21.8307 9.5322 22.492C10.1875 22.6144 10.8631 22.6784 11.5535 22.6784Z" fill="#175CD3"/>
<path id="Circle" fill-rule="evenodd" clip-rule="evenodd" d="M9.53222 22.4919C4.40565 21.5339 0.523132 16.9982 0.523132 11.5475C0.523132 5.4 5.4616 0.416504 11.5535 0.416504C16.955 0.416504 21.4497 4.33442 22.3991 9.50774C21.7438 9.38528 21.0682 9.32127 20.3778 9.32127C14.2859 9.32127 9.34743 14.3048 9.34743 20.4522C9.34743 21.1489 9.41086 21.8307 9.53222 22.4919Z" fill="#1570EF"/>
<path id="Circle_2" fill-rule="evenodd" clip-rule="evenodd" d="M11.5535 22.6785C17.6454 22.6785 22.5838 17.695 22.5838 11.5475C22.5838 10.8508 22.5204 10.1691 22.399 9.50781C27.5256 10.4659 31.4081 15.0015 31.4081 20.4523C31.4081 26.5998 26.4697 31.5832 20.3778 31.5832C14.9763 31.5832 10.4816 27.6653 9.53217 22.492C10.1874 22.6145 10.863 22.6785 11.5535 22.6785Z" fill="#2E90FA"/>
</g>
</svg>
