<svg width="28" height="32" viewBox="0 0 28 32" fill="none" xmlns="http://www.w3.org/2000/svg">
<g id="Logomark">
<path id="Intersect" d="M23.9445 15.9998C21.4495 18.8129 17.8238 20.5832 13.7883 20.5832C9.7528 20.5832 6.12705 18.8129 3.63208 15.9998C6.12705 13.1868 9.7528 11.4165 13.7883 11.4165C17.8238 11.4165 21.4495 13.1868 23.9445 15.9998Z" fill="white"/>
<path id="Shape" fill-rule="evenodd" clip-rule="evenodd" d="M0.162476 25.1665C0.162476 17.5726 6.26293 11.4165 13.7882 11.4165C9.75273 11.4165 6.12701 13.1868 3.63204 15.9998C6.12701 18.8129 9.75276 20.5832 13.7882 20.5832C17.8237 20.5832 21.4495 18.8129 23.9444 15.9999C26.102 18.4325 27.414 21.6449 27.414 25.1665V30.3609C27.414 31.036 26.8717 31.5832 26.2028 31.5832H1.37365C0.704738 31.5832 0.162476 31.036 0.162476 30.3609V25.1665ZM23.9444 15.9999C23.9444 15.9999 23.9444 15.9998 23.9444 15.9999V15.9999Z" fill="#7CD4FD"/>
<path id="Shape_2" fill-rule="evenodd" clip-rule="evenodd" d="M8.67737 19.5832C6.73179 18.7882 5.00957 17.553 3.63204 15.9998C6.12701 13.1868 9.75276 11.4165 13.7882 11.4165C17.8237 11.4165 21.4495 13.1868 23.9444 15.9998C23.9444 15.9998 23.9444 15.9998 23.9444 15.9998C26.102 13.5672 27.414 10.3548 27.414 6.83317V1.63873C27.414 0.963714 26.8717 0.416506 26.2028 0.416506L1.37365 0.416504C0.704739 0.416504 0.162476 0.963712 0.162476 1.63873L0.162476 6.83317C0.162475 12.6032 3.68445 17.5431 8.67737 19.5832Z" fill="#0BA5EC"/>
</g>
</svg>
