<svg width="32" height="32" viewBox="0 0 32 32" fill="none" xmlns="http://www.w3.org/2000/svg">
<g id="Logomark">
<path id="Isometric square" d="M9.82884 14.8087C10.406 12.6354 12.6198 10.4014 14.7736 9.81894L28.2008 6.18776C30.3545 5.60533 31.6326 6.89502 31.0554 9.06838L27.457 22.6181C26.8799 24.7914 24.666 27.0254 22.5123 27.6079L9.08506 31.2391C6.93134 31.8215 5.6533 30.5318 6.23047 28.3584L9.82884 14.8087Z" fill="#9E77ED"/>
<path id="Isometric square_2" d="M4.44596 9.37662C5.02314 7.20326 7.23696 4.96925 9.39068 4.38681L22.8179 0.755633C24.9717 0.173195 26.2497 1.46289 25.6725 3.63625L22.0742 17.1859C21.497 19.3593 19.2832 21.5933 17.1295 22.1757L3.70219 25.8069C1.54847 26.3894 0.270423 25.0997 0.847597 22.9263L4.44596 9.37662Z" fill="#6941C6"/>
</g>
</svg>
