<svg width="31" height="32" viewBox="0 0 31 32" fill="none" xmlns="http://www.w3.org/2000/svg">
<g id="Logomark">
<path id="Ring" fill-rule="evenodd" clip-rule="evenodd" d="M15.5618 24.8304C20.3947 24.8304 24.3125 20.8768 24.3125 15.9998C24.3125 11.1229 20.3947 7.16928 15.5618 7.16928C10.7289 7.16928 6.81102 11.1229 6.81102 15.9998C6.81102 20.8768 10.7289 24.8304 15.5618 24.8304ZM15.5618 31.5832C24.0905 31.5832 31.0043 24.6063 31.0043 15.9998C31.0043 7.3934 24.0905 0.416504 15.5618 0.416504C7.03311 0.416504 0.119263 7.3934 0.119263 15.9998C0.119263 24.6063 7.03311 31.5832 15.5618 31.5832Z" fill="#6938EF"/>
<path id="Descender" d="M15.7384 16.3413C17.3466 14.7184 19.954 14.7184 21.5621 16.3413L29.5698 24.4219C31.178 26.0448 31.178 28.6759 29.5698 30.2988C27.9616 31.9216 25.3542 31.9216 23.746 30.2988L15.7384 22.2181C14.1302 20.5953 14.1302 17.9641 15.7384 16.3413Z" fill="#F670C7"/>
<path id="Intersect" d="M17.9869 24.4871L23.0727 29.6193C25.512 28.2464 27.5443 26.2255 28.9409 23.7873L23.8969 18.6973C23.0109 21.4877 20.787 23.6739 17.9869 24.4871Z" fill="#6519BA"/>
</g>
</svg>
